# xmcd
#
# Track frame offsets:
#	150
#	19707
#	34632
#	50139
#	62102
#	76015
#	88840
#	99903
#	114828
#	137385
#	152423
#	166673
#
# Disc length: 2369 seconds
# Revision: 0
# Processed by: cddbd v1.5.2PL0 Copyright (c) Steve Scherf et al.
# Submitted via: dBpowerAMP V12.0
#
DISCID=7f093f0c
DTITLE=Danny Santos - This Old World
DYEAR=2013
DGENRE=Country
TTITLE0=This Old World
TTITLE1=Red Hair Woman Blues
TTITLE2=Texas Wildfire
TTITLE3=Adonde Se Fue Mi Amor
TTITLE4=Blinded
TTITLE5=He Said She Said
TTITLE6=Tellin' Me Things I Need To Hear
TTITLE7=It's Been This Way Forever
TTITLE8=Banks Of The Ohio
TTITLE9=Deep Ellum Blues
TTITLE10=Two Dollar Bill
TTITLE11=Black Mountain Rag
EXTD=
EXTT0=
EXTT1=
EXTT2=
EXTT3=
EXTT4=
EXTT5=
EXTT6=
EXTT7=
EXTT8=
EXTT9=
EXTT10=
EXTT11=
PLAYORDER=
